<svg xmlns="http://www.w3.org/2000/svg" width="256" height="256" fill="none" viewBox="0 0 256 256" id="discord">
  <rect width="224" height="224" x="16" y="16" fill="url(#paint0_linear_531_13620)" rx="70"></rect>
  <path fill="#5865F2" d="M174.274 84.827C165.531 80.7361 156.281 77.8294 146.77 76.1836C145.585 78.3256 144.201 81.2065 143.246 83.4985C132.991 81.9564 122.83 81.9564 112.763 83.4985C111.809 81.207 110.394 78.3256 109.198 76.1836C99.677 77.8301 90.4195 80.7443 81.6721 84.8483C64.2656 111.152 59.5468 136.802 61.9059 162.089C73.4511 170.711 84.6395 175.948 95.6395 179.376C98.3732 175.616 100.79 171.636 102.864 167.476C98.9148 165.973 95.1074 164.12 91.4873 161.939C92.4399 161.233 93.3702 160.498 94.2766 159.733C116.213 169.993 140.048 169.993 161.723 159.733C162.633 160.492 163.563 161.228 164.512 161.939C160.886 164.126 157.071 165.982 153.114 167.487C155.2 171.664 157.612 175.648 160.339 179.386C171.349 175.959 182.548 170.722 194.093 162.089C196.862 132.776 189.364 107.361 174.274 84.827ZM105.853 146.538C99.2677 146.538 93.8672 140.391 93.8672 132.904C93.8672 125.418 99.1526 119.26 105.853 119.26C112.554 119.26 117.954 125.407 117.839 132.904C117.849 140.391 112.554 146.538 105.853 146.538ZM150.146 146.538C143.561 146.538 138.161 140.391 138.161 132.904C138.161 125.418 143.446 119.26 150.146 119.26C156.847 119.26 162.247 125.407 162.132 132.904C162.132 140.391 156.847 146.538 150.146 146.538Z"></path>
  <defs>
    <linearGradient id="paint0_linear_531_13620" x1="16" x2="208" y1="16" y2="240" gradientUnits="userSpaceOnUse">
      <stop stop-color="#fff"></stop>
      <stop offset="1" stop-color="#ACCCFF"></stop>
    </linearGradient>
  </defs>
</svg>
